
                <svg width="500px" height="500px" viewBox="-50 -50 500 500">
                    <path fill="#f47b6c" d="M8.09,90.25a107.69,107.69,0,0,1,23-39.56L45.4,58.23a159.21,159.21,0,0,0-37.31,32Z">
                        <animate id="animate1" attributeName="fill" from="#f47b6c" to="#c779d0" fill="freeze" dur="0.5s" begin="0s" repeatCount="indefinate" />
                    </path>
                    <path fill="#f47b6c" d="M35.41,46l15.5,8.16,15.7-8.36L51.52,31.93Z">
                        <animate id="animate2" attributeName="fill" from="#f47b6c" to="#c779d0" fill="freeze" dur="0.5s" begin="animate4.end" repeatCount="indefinate" />
                    </path>
                    <path fill="#f47b6c" d="M55.64,27.57,72.14,43c4.16-1.69,8.66-3.36,13.5-4.93s9.24-2.8,13.5-3.86L98.93,2.5c-8,4-16.28,8.43-24.86,13.5C67.55,19.85,61.41,23.73,55.64,27.57Z">
                        <animate id="animate3" attributeName="fill" from="#f47b6c" to="#c779d0" fill="freeze" dur="0.5s" begin="animate2.end" repeatCount="indefinate" />
                    </path>
                    <path fill="#f47b6c" d="M96.79,94.21A135.21,135.21,0,0,0,74.5,70,135.15,135.15,0,0,0,56.93,57.36L70.86,50.5A126.21,126.21,0,0,1,86.07,71.07,126.93,126.93,0,0,1,96.79,94.21Z">
                        <animate id="animate4" attributeName="fill" from="#f47b6c" to="#c779d0" fill="freeze" dur="0.5s" begin="0s" repeatCount="indefinate" />
                    </path>
                    <path fill="#f47b6c" d="M31,43.21A89.19,89.19,0,0,1,46.86,27.57c-6.74-4.6-14.3-9.32-22.72-13.93C17.05,9.76,10.22,6.43,3.79,3.57L4,34a120.1,120.1,0,0,1,12,3.21A122.11,122.11,0,0,1,31,43.21Z">
                        <animate id="animate5" attributeName="fill" from="#f47b6c" to="#c779d0" fill="freeze" dur="0.5s" begin="animate2.end" repeatCount="indefinate" />
                    </path>
                    <path fill="#f47b6c" d="M2.71,93.57,3.79,40.43c3.18.7,6.63,1.6,10.28,2.78A109.67,109.67,0,0,1,25.21,47.5,161.06,161.06,0,0,0,2.71,93.57Z">
                        <animate id="animate6" attributeName="fill" from="#f47b6c" to="#c779d0" fill="freeze" dur="0.5s" begin="animate5.end" repeatCount="indefinate" />
                    </path>
                    <path fill="#f47b6c" d="M77.07,47.5a97.83,97.83,0,0,1,9.86-3.86,96.78,96.78,0,0,1,11.36-3l.64,53.57a114.63,114.63,0,0,0-9.86-27.85A114.76,114.76,0,0,0,77.07,47.5Z">
                        <animate id="animate7" attributeName="fill" from="#f47b6c" to="#c779d0" fill="freeze" dur="0.5s" begin="animate5.end" repeatCount="indefinate" />
                    </path>
                </svg>